# xmcd CD database file
#
# Track frame offsets:
#	150
#	19552
#	37007
#	57825
#	71707
#	86235
#	105530
#	118472
#	133017
#	148500
#
# Disc length: 2217 seconds
#
# Revision: 2
# Processed by: cddbd v1.4PL0 Copyright (c) Steve Scherf et al.
# Submitted via: CDex 1.50Beta7
#
DISCID=9208a70a
DTITLE=Reba McEntire - For My Broken Heart
DYEAR=1991
DGENRE=Country
TTITLE0=For My Broken Heart
TTITLE1=Is There Life Out There
TTITLE2=Bobby
TTITLE3=He's In Dallas
TTITLE4=All Dressed Up (With Nowhere To Go)
TTITLE5=The Night The Lights Went Out In Georgia
TTITLE6=Buying Her Roses
TTITLE7=The Greatest Man I Never Knew
TTITLE8=I Wouldn't Go That Far
TTITLE9=If I Had Only Known
EXTD=YEAR: 1991
EXTT0=
EXTT1=
EXTT2=
EXTT3=
EXTT4=
EXTT5=
EXTT6=
EXTT7=
EXTT8=
EXTT9=
PLAYORDER=
